<svg width="40" height="40" viewBox="0 0 40 40" fill="none" xmlns="http://www.w3.org/2000/svg">
<circle cx="20" cy="20" r="20" fill="white"/>
<circle cx="19.9999" cy="19.9999" r="16.8627" fill="#E21A1A"/>
<path d="M10.1681 20.0493C10.3805 20.2559 10.5929 20.4501 10.7991 20.6568C11.5238 21.3896 12.2423 22.1349 12.967 22.8677C13.0357 22.9429 13.0669 23.0431 13.0544 23.137V24.3145C13.0544 25.1976 13.0544 26.0807 13.0544 26.9638C13.0544 27.0828 13.0857 27.1142 13.2044 27.1142C14.4788 27.1079 15.7533 27.1079 17.0278 27.1079C17.0965 27.1142 17.159 27.1517 17.2027 27.2018C17.5776 27.5776 17.9587 27.966 18.3273 28.348C18.8708 28.9054 19.4143 29.4691 19.9703 30.0391C20.1078 29.9013 20.2265 29.7823 20.3452 29.6633C21.1449 28.8428 21.9445 28.0161 22.7567 27.2018C22.8254 27.1455 22.9129 27.1079 23.0004 27.1079C24.2561 27.1016 25.5118 27.1016 26.7676 27.1079C26.8863 27.1079 26.905 27.0703 26.905 26.9576C26.905 25.6799 26.905 24.3959 26.8988 23.1182C26.8925 23.0055 26.9362 22.899 27.0175 22.8239C27.6047 22.2289 28.192 21.6339 28.7792 21.0389C28.823 20.995 28.8855 20.9637 28.9479 20.9574C29.5352 20.9512 30.1224 20.9574 30.7097 20.9574C30.7347 20.9574 30.7597 20.9637 30.7847 20.97C30.7659 20.995 30.7534 21.0201 30.7284 21.0451C29.9475 21.8405 29.1728 22.636 28.3919 23.4314C28.3232 23.5003 28.2794 23.5942 28.2857 23.6945C28.2857 25.2352 28.2857 26.7697 28.2857 28.3104C28.2857 28.5296 28.2857 28.5296 28.067 28.5296C26.5552 28.5296 25.0433 28.5296 23.5314 28.5296C23.4564 28.5296 23.3877 28.561 23.3315 28.6111C22.588 29.3689 21.8508 30.1268 21.1074 30.8846C20.7575 31.2479 20.4014 31.6049 20.0516 31.9681C19.9828 32.037 19.9391 32.0245 19.8766 31.9619C19.5018 31.5736 19.1269 31.1978 18.7521 30.8095C18.0274 30.0704 17.3027 29.3251 16.578 28.586C16.5342 28.5484 16.4843 28.5296 16.428 28.5296C14.9037 28.5296 13.373 28.5296 11.8487 28.5296C11.6425 28.5296 11.6425 28.5296 11.6425 28.323V23.6819C11.6487 23.5942 11.6113 23.5066 11.5488 23.4439C10.8616 22.7424 10.1743 22.041 9.48713 21.3395C9.08104 20.9199 8.66871 20.5002 8.26263 20.0806C8.24388 20.0618 8.23139 20.043 8.21265 20.0242C8.26263 19.9678 8.30636 19.9115 8.35009 19.8614C9.06855 19.1286 9.78076 18.3958 10.4992 17.663C10.8491 17.306 11.1989 16.949 11.5425 16.5857C11.5988 16.5231 11.63 16.4479 11.63 16.3602C11.6362 14.807 11.6362 13.2474 11.6362 11.6941C11.6362 11.5125 11.6362 11.5125 11.8237 11.5125H16.3593C16.4593 11.5188 16.553 11.4749 16.6155 11.406C17.6525 10.3413 18.6959 9.27655 19.7392 8.21807C19.8079 8.14917 19.8704 8.07401 19.9454 7.98633C20.164 8.20554 20.3702 8.41223 20.5701 8.61891C21.4885 9.55839 22.4006 10.4916 23.319 11.4248C23.3752 11.4749 23.4502 11.5063 23.5251 11.5125C25.0495 11.5188 26.5676 11.5188 28.092 11.5188C28.2794 11.5188 28.2794 11.5188 28.2794 11.7129C28.2794 13.2599 28.2794 14.807 28.2794 16.354C28.2732 16.4479 28.3107 16.5419 28.3794 16.6045C29.1416 17.3749 29.9038 18.1515 30.6597 18.9282C30.7097 18.9783 30.7534 19.0346 30.7972 19.0847L30.7847 19.1223H30.3536C29.9038 19.1223 29.4602 19.1223 29.0104 19.116C28.9229 19.1098 28.8417 19.0785 28.7792 19.0221C28.1795 18.4146 27.5797 17.807 26.9862 17.1932C26.93 17.1306 26.8925 17.0555 26.8925 16.974C26.8863 15.6838 26.8863 14.3936 26.8925 13.1034C26.8925 12.9718 26.855 12.9343 26.7301 12.9343C25.4743 12.9343 24.2124 12.9343 22.9504 12.9343C22.8754 12.928 22.8004 12.8967 22.7442 12.8466C21.8508 11.9384 20.9574 11.0302 20.0703 10.1221C19.9953 10.0407 19.9454 10.0281 19.8579 10.1158C19.3206 10.6732 18.7708 11.2307 18.2273 11.7818C17.8774 12.1388 17.5338 12.5021 17.1777 12.8528C17.1153 12.9092 17.0403 12.9343 16.9591 12.9405C15.7158 12.9468 14.4726 12.9405 13.2293 12.9405H13.0482C13.0482 13.0157 13.0357 13.0783 13.0357 13.1409C13.0357 14.3873 13.0357 15.64 13.0357 16.8863C13.0419 17.0179 12.9919 17.1494 12.892 17.2433C12.0048 18.1452 11.1177 19.0472 10.2368 19.9553C10.2368 19.9678 10.2181 19.9929 10.1681 20.0493Z" fill="white"/>
<path d="M24.8239 20.9823C24.7114 21.3205 24.6052 21.64 24.499 21.9657C24.4615 22.0784 24.4365 22.1974 24.4303 22.3227C24.4241 23.0304 24.4241 23.7381 24.4303 24.4459C24.4303 24.5774 24.3803 24.5962 24.2741 24.5962C23.5869 24.5899 22.8934 24.5962 22.2062 24.5899C22 24.6087 21.8001 24.6714 21.6127 24.7653C20.7068 25.0973 19.726 25.1474 18.7951 24.9094C18.539 24.8467 18.2891 24.734 18.0329 24.6463C17.9517 24.615 17.8642 24.5962 17.7768 24.5962C17.0771 24.5899 16.3773 24.5899 15.6776 24.5962C15.5402 24.5962 15.5089 24.5586 15.5089 24.4208C15.5152 23.7068 15.5152 22.9928 15.5089 22.2788C15.5089 22.1911 15.4902 22.1034 15.459 22.022C15.0279 21.0074 14.9404 19.88 15.2091 18.8153C15.2715 18.571 15.3715 18.3393 15.4465 18.095C15.484 17.9885 15.5027 17.882 15.5152 17.7693C15.5214 17.0616 15.5152 16.3601 15.5152 15.6461C15.5152 15.4707 15.5152 15.4707 15.6901 15.4707C16.3898 15.4707 17.0895 15.4707 17.783 15.4707C17.8767 15.4707 17.9642 15.4519 18.0517 15.4143C19.1887 14.907 20.4819 14.8757 21.6439 15.3267C21.9063 15.4331 22.1812 15.4832 22.4624 15.477C23.0684 15.4582 23.6619 15.4707 24.2679 15.4645C24.3866 15.4645 24.4303 15.502 24.4241 15.6273C24.4178 16.335 24.4178 17.0428 24.4241 17.7505C24.4303 17.8695 24.449 17.9885 24.4928 18.1075C24.5802 18.4082 24.6802 18.7088 24.7739 19.0094C24.8051 19.1034 24.7739 19.141 24.674 19.141C24.2741 19.141 23.868 19.141 23.4682 19.141C23.4182 19.1284 23.3745 19.0971 23.3495 19.047C23.2495 18.8153 23.1558 18.5835 23.0684 18.3455C23.0434 18.2578 23.0246 18.1702 23.0309 18.0825C23.0246 17.738 23.0246 17.3935 23.0309 17.0553C23.0309 16.9488 22.9996 16.9113 22.8934 16.9175C22.5498 16.9238 22.2062 16.93 21.8564 16.9175C21.7252 16.905 21.6002 16.8674 21.4815 16.811C20.4757 16.3162 19.3011 16.3413 18.314 16.8737C18.2391 16.905 18.1579 16.9238 18.0704 16.9238C17.7205 16.93 17.3707 16.93 17.0208 16.9238C16.9146 16.9238 16.8834 16.9551 16.8834 17.0616C16.8896 17.4123 16.8896 17.7568 16.8834 18.1075C16.8834 18.2203 16.8521 18.3393 16.8084 18.4457C16.3024 19.4604 16.3024 20.6504 16.8022 21.6588C16.8521 21.7778 16.8834 21.9093 16.8896 22.0346C16.9021 22.3728 16.8959 22.7172 16.8896 23.0492C16.8896 23.1557 16.9146 23.1995 17.0271 23.1995C17.3832 23.1932 17.7455 23.1932 18.1016 23.1995C18.1766 23.1995 18.2516 23.2183 18.314 23.2496C19.3136 23.7882 20.5069 23.8008 21.519 23.2872C21.6314 23.2308 21.7564 23.2058 21.8813 23.1995C22.2187 23.187 22.5561 23.1932 22.8872 23.1995C22.9871 23.1995 23.0184 23.1619 23.0184 23.068C23.0121 22.7047 23.0121 22.3414 23.0184 21.9844C23.0309 21.8842 23.0559 21.784 23.0933 21.6901C23.1621 21.4959 23.237 21.3018 23.3183 21.1139C23.337 21.07 23.3932 21.0074 23.437 21.0011C23.8555 20.9949 24.2804 20.9949 24.6989 21.0011C24.7302 21.0074 24.7614 21.0136 24.7927 21.0262" fill="white"/>
</svg>
