<svg width="294" height="47" viewBox="0 0 294 47" fill="none" xmlns="http://www.w3.org/2000/svg">
<path d="M23.3564 7.91919L37.5356 46.5056H29.0451L26.3709 38.5743H11.0978L8.52998 46.5056H0L14.0059 7.91919H23.3564ZM13.228 32.0682H24.1738L18.7131 15.6448L13.228 32.0682Z" fill="#055E7C"/>
<path d="M48.8916 7.91919H67.4345C75.5846 7.91919 79.7934 11.4018 79.7934 17.6754C79.7934 21.5367 78.271 24.1755 75.0954 25.6247C79.2008 27.2378 81.1761 30.2374 81.1761 34.7636C81.1761 42.1046 76.1347 46.5027 66.8419 46.5027H48.8916V7.91919ZM65.906 22.8308C69.7805 22.8308 71.6524 21.5993 71.6524 18.6355C71.6524 15.6717 69.744 14.6221 65.8452 14.6221H56.6649V22.8308H65.909H65.906ZM66.2251 39.5344C70.6617 39.5344 72.7585 38.0674 72.7585 34.537C72.7585 30.7711 70.6587 29.4263 66.1764 29.4263H56.6619V39.5344H66.2251Z" fill="#055E7C"/>
<path d="M112.525 7.91895L126.71 46.5054H118.226L115.536 38.574H100.272L97.6985 46.5054H89.1807L103.168 7.91895H112.522H112.525ZM102.406 32.0709H113.351L107.888 15.6476L102.406 32.0709Z" fill="#055E7C"/>
<path d="M137.861 0.25H130.361V15.25H137.861V0.25Z" fill="#EB2227"/>
<path d="M289.621 8.19649C288.436 8.19649 287.36 8.66164 286.57 9.41304L269.015 23.3257L265.69 20.7287L251.377 9.54721L251.122 9.33253C250.903 9.15661 250.876 9.13275 250.523 8.88527C249.754 8.32471 248.891 7.96094 247.898 7.96094C245.579 7.96094 243.701 9.85731 243.701 12.198C243.701 13.501 244.285 14.6668 245.202 15.4451L245.208 15.451C245.248 15.4838 245.287 15.5166 245.33 15.5494L261.63 28.7018L264.493 31.0126L264.505 42.5191V42.54C264.526 44.8508 266.444 46.7174 268.802 46.7174C271.16 46.7174 273.029 44.8985 273.096 42.6264L273.105 42.6115V31.0216L290.475 17.3951L290.672 17.2341L291.18 16.8167C291.286 16.7272 291.429 16.6228 291.526 16.5304L292.21 15.9669C293.249 15.0843 294 13.9244 294 12.5021C294 10.1286 292.04 8.20544 289.621 8.20544V8.19649Z" fill="#00BCD4"/>
<path d="M248.448 40.1218L227.826 9.74997C227.036 8.66761 225.727 7.96094 224.268 7.96094C221.867 7.96094 219.919 9.87222 219.919 12.2278C219.919 13.1789 220.235 14.0556 220.77 14.7652L230.531 28.5557L211.97 28.5259C210.876 28.5557 209.153 29.2325 207.907 30.7473L201.37 39.8594C200.69 40.5899 200.276 41.5649 200.276 42.6324C200.276 44.9074 202.154 46.7502 204.473 46.7502C205.862 46.7502 207.092 46.0882 207.855 45.0685L207.91 45.0386L213.802 37.3518H236.742L241.483 44.6331C242.191 45.8944 243.561 46.7502 245.132 46.7502C247.433 46.7502 249.299 44.9194 249.299 42.6622C249.299 41.8094 249.031 41.0193 248.578 40.3633C248.539 40.2768 248.496 40.1933 248.451 40.1218H248.448Z" fill="#00BCD4"/>
<path d="M192.179 7.95508C192.148 7.95508 192.118 7.95508 192.087 7.95508H160.101C157.694 7.95508 155.746 9.86934 155.746 12.2279C155.746 13.0866 156.007 13.8857 156.451 14.5536C157.056 15.3945 157.907 15.9968 158.992 16.3546C159.347 16.447 159.718 16.5007 160.101 16.5007H192.367H192.434C192.549 16.5007 192.662 16.5067 192.774 16.5186C194.549 16.6975 195.935 18.1705 195.935 19.9595C195.935 21.8529 194.382 23.3914 192.458 23.4153H192.166H180.224H159.888C157.302 23.4153 155.746 25.3892 155.746 27.6374V42.4118C155.746 44.7465 157.676 46.6399 160.055 46.6399C162.435 46.6399 164.273 44.83 164.358 42.5699V32.0086H192.182L192.303 32.0027C192.303 32.0027 192.309 32.0027 192.312 32.0027C198.922 31.8267 204.227 26.5133 204.227 19.9833C204.227 13.4534 198.852 8.06242 192.176 7.95508H192.179Z" fill="#00BCD4"/>
</svg>
