<svg width="78" height="47" viewBox="0 0 78 47" fill="none" xmlns="http://www.w3.org/2000/svg">
<path fill-rule="evenodd" clip-rule="evenodd" d="M73.1802 46.4617H5.53487C2.90858 46.4617 0.759766 44.2994 0.759766 41.6566V5.278C0.759766 2.63521 2.90858 0.4729 5.53487 0.4729H73.1802C75.8065 0.4729 77.9553 2.63521 77.9553 5.278V41.6566C77.9553 44.2994 75.8065 46.4617 73.1802 46.4617" fill="#00A0E9"/>
<mask id="mask0_1_1461" style="mask-type:luminance" maskUnits="userSpaceOnUse" x="20" y="8" width="39" height="30">
<path fill-rule="evenodd" clip-rule="evenodd" d="M20.4697 8.68515H58.592V37.1889H20.4697V8.68515Z" fill="white"/>
</mask>
<g mask="url(#mask0_1_1461)">
<path fill-rule="evenodd" clip-rule="evenodd" d="M29.8645 34.3469C26.4652 34.3469 22.8988 32.7866 22.8988 29.7774C22.8988 26.7682 26.2981 25.0964 29.976 25.0964C33.6539 25.0964 39.5052 28.2728 39.5052 28.2728C38.112 30.7247 33.2638 34.3469 29.8645 34.3469M45.2335 26.1843C47.5355 22.5075 48.4567 18.0003 48.4567 18.0003H40.2571V15.0379H50.2104V13.4302H40.2571V8.68512H36.0498C35.9266 8.68512 35.8269 8.78487 35.8269 8.90802V13.5054H31.3688V12.0008H30.31V13.4497H25.9076V15.1772H35.994V17.9078H27.8023V19.6353H43.4614C43.127 22.143 41.1766 25.0408 41.1766 25.0408C41.1766 25.0408 33.5421 22.3659 28.9725 22.3659C24.403 22.3659 20.6375 25.6014 20.4743 29.3596C20.3349 32.5638 22.8148 37.6071 30.2264 37.1613C37.638 36.7155 42.6533 30.0283 42.6533 30.0283L58.5911 37.1847V30.6485C45.5511 26.9773 45.2335 26.1843 45.2335 26.1843" fill="white"/>
</g>
</svg>
